<svg width="16" height="16" viewBox="0 0 16 16" fill="none" xmlns="http://www.w3.org/2000/svg">
<path d="M8 0.75647C12.1431 0.75647 15.5 4.11332 15.5 8.25647C15.5 12.3996 12.1431 15.7565 8 15.7565C3.85685 15.7565 0.5 12.3996 0.5 8.25647C0.5 4.11332 3.85685 0.75647 8 0.75647ZM4.49194 9.58711H8V11.7313C8 12.0549 8.39315 12.2182 8.61996 11.9883L12.0766 8.51353C12.2188 8.37139 12.2188 8.14457 12.0766 8.00244L8.61996 4.52462C8.39012 4.29478 8 4.45808 8 4.78167V6.92582H4.49194C4.29234 6.92582 4.12903 7.08913 4.12903 7.28873V9.22421C4.12903 9.42381 4.29234 9.58711 4.49194 9.58711Z" fill="white"/>
</svg>
